<svg id="Layer_1" data-name="Layer 1" xmlns="http://www.w3.org/2000/svg" xmlns:xlink="http://www.w3.org/1999/xlink" viewBox="0 0 1280 720"><defs><style>.cls-1{fill:url(#linear-gradient);}.cls-2{fill:url(#linear-gradient-2);}.cls-3{fill:url(#linear-gradient-3);}.cls-4{fill:url(#linear-gradient-4);}.cls-5{fill:#fe0000;}.cls-6{fill:url(#linear-gradient-5);}.cls-7{fill:url(#linear-gradient-6);}.cls-8{fill:url(#linear-gradient-7);}.cls-9{fill:url(#linear-gradient-8);}.cls-10{fill:url(#linear-gradient-9);}.cls-11{fill:url(#linear-gradient-10);}.cls-12{fill:url(#linear-gradient-11);}.cls-13{fill:url(#linear-gradient-12);}.cls-14{fill:url(#linear-gradient-13);}.cls-15{fill:url(#linear-gradient-14);}</style><linearGradient id="linear-gradient" x1="685.28" y1="470.74" x2="685.28" y2="425.07" gradientUnits="userSpaceOnUse"><stop offset="0" stop-color="#797979"/><stop offset="0.26" stop-color="#b2b2b2"/><stop offset="0.58" stop-color="#fff"/></linearGradient><linearGradient id="linear-gradient-2" x1="749.36" y1="470.74" x2="749.36" y2="425.07" xlink:href="#linear-gradient"/><linearGradient id="linear-gradient-3" x1="813.95" y1="470.74" x2="813.95" y2="425.07" xlink:href="#linear-gradient"/><linearGradient id="linear-gradient-4" x1="875.87" y1="470.74" x2="875.87" y2="425.07" xlink:href="#linear-gradient"/><linearGradient id="linear-gradient-5" x1="441.31" y1="309.8" x2="666.5" y2="309.8" xlink:href="#linear-gradient"/><linearGradient id="linear-gradient-6" x1="810.23" y1="447.04" x2="810.23" y2="358.87" gradientUnits="userSpaceOnUse"><stop offset="0" stop-color="#797979"/><stop offset="0.19" stop-color="#b2b2b2"/><stop offset="0.43" stop-color="#fff"/></linearGradient><linearGradient id="linear-gradient-7" x1="767.79" y1="417.77" x2="767.79" y2="350.16" xlink:href="#linear-gradient"/><linearGradient id="linear-gradient-8" x1="478.35" y1="417.77" x2="478.35" y2="350.16" xlink:href="#linear-gradient"/><linearGradient id="linear-gradient-9" x1="611.74" y1="417.77" x2="611.74" y2="350.16" xlink:href="#linear-gradient"/><linearGradient id="linear-gradient-10" x1="767.87" y1="417.77" x2="767.87" y2="350.16" xlink:href="#linear-gradient"/><linearGradient id="linear-gradient-11" x1="689.93" y1="417.77" x2="689.93" y2="350.16" xlink:href="#linear-gradient"/><linearGradient id="linear-gradient-12" x1="430.45" y1="417.77" x2="430.45" y2="350.16" xlink:href="#linear-gradient"/><linearGradient id="linear-gradient-13" x1="863.48" y1="417.77" x2="863.48" y2="350.16" xlink:href="#linear-gradient"/><linearGradient id="linear-gradient-14" x1="531.62" y1="417.77" x2="531.62" y2="350.16" xlink:href="#linear-gradient"/></defs><rect width="1280" height="720"/><path class="cls-1" d="M709.22,451.31v.86c0,4.84-4.08,8.56-9.37,8.56H661.34V428.79h38.35c5.61,0,9.43,3.47,9.43,8.31v.71a7.11,7.11,0,0,1-4.59,6.67A7.62,7.62,0,0,1,709.22,451.31Zm-39.63-10.19h28.22a2.94,2.94,0,0,0,3.05-2.7V438c0-1.12-1.07-2-2.9-2H669.59Zm31.48,9.47c0-1.32-1.63-2.39-3.21-2.39H669.59v5.4H698c1.78,0,3.06-1,3.06-2.45Z"/><path class="cls-2" d="M725.42,450.49v-11.2c0-6.52,4.48-10.5,11.56-10.5h24.81c6.93,0,11.51,3.92,11.51,10.5v11.2c0,6.42-4.58,10.24-11.61,10.24H737C730.11,460.73,725.42,456.81,725.42,450.49Zm34.89,3.11c3.42,0,4.84-1.43,4.84-4.59v-8.45c0-3.06-1.53-4.64-5.19-4.64H738.77c-3.67,0-5.15,1.84-5.15,4.64V449c0,3,1.84,4.59,4.79,4.59Z"/><path class="cls-3" d="M790,428.79h36.37c6.93,0,11.52,3.92,11.52,10.5v11.2c0,6.42-4.59,10.24-11.62,10.24H790Zm34.9,24.81c3.41,0,4.84-1.43,4.84-4.59v-8.45c0-3.06-1.48-4.64-5.15-4.64H798.27V453.6Z"/><path class="cls-4" d="M902.39,428.79,880,449.88v10.85h-8.1V449.88l-22.57-21.09h11.21l15.33,14.42,15.43-14.42Z"/><path class="cls-5" d="M606.93,442.87v7.72c0,6.32-4.64,10.14-11.11,10.14h-25c-6.31,0-11.15-3.87-11.15-10.14V439.18c0-6.41,4.53-10.39,11-10.39h22.09l-7.4-7.4H365.75v46.66H632.11Zm-217,17.86L396,451.9l6.18,8.83Zm24.52,0L396,434.45,385.9,449l-3.4,4.89h0l-4.78,6.83h-6.52l22.56-31.94h4.64l22.46,31.94Zm67.51-10.14c0,6.32-4.58,10.14-11.05,10.14h-25c-6.32,0-11.16-3.87-11.16-10.14v-21.8h5.6v20.58c0,4.13,2.75,6.47,6.58,6.47h22.92c4.48,0,6.62-2.24,6.62-6.47l-.05-20.58h5.5Zm63.32-17H524.86v27.1h-5.65v-27.1H498.68v-4.84h46.56Z"/><path class="cls-5" d="M594.4,433.63H572.29c-5.09,0-7,3-7,6.57v9.17c0,4.13,2.75,6.47,6.57,6.47h22.87c4.49,0,6.58-2.24,6.58-6.47V440.2a7.33,7.33,0,0,0-1-3.89l-1.63-1.63A8.07,8.07,0,0,0,594.4,433.63Z"/><path class="cls-6" d="M671.67,297.41c16.42,4.13,32.39,9.85,48.65,14.55-5.36-4.88-12.44-7-18.7-10.42-19.47-9.87-39.34-19.28-60.55-24.84-37.86-10.67-78.82-11.21-116.52.48a230.31,230.31,0,0,0-46.77,20.32c-18.62,9.72-40.56,21.55-59.27,31.07l7.22-.37a130,130,0,0,1,40.52,4.27l.22.06c8.48,2.43,17,4.74,25.56,6.8,5.52,1.23,11.08,2.31,16.63,3.44,44.67,8,90.23,9.11,135.47,7.8-5.85-2.72-12.45-2.57-18.73-3.47-19.34-2.37-38.76-4.25-58-7.07-10.9-1.08-21.74-2.78-32.57-4.57a203.49,203.49,0,0,1-23.4-5.55c-12.68-3.94-25.61-8.22-36.51-16,22.14-15.52,48.88-23.27,75.45-26.6C590.94,282.09,632.22,287.17,671.67,297.41Z"/><path class="cls-5" d="M401.48,351.54a77.18,77.18,0,0,1,36.62-12.33l5.94.2c-13.11,4.08-25.81,10.53-35.29,20.67-12.54,12.93-18.52,30.76-20.18,48.4-7.61,0-15.21,0-22.82,0,.57-3.31,1.09-6.61,1.92-9.86A80.78,80.78,0,0,1,401.48,351.54Z"/><path class="cls-5" d="M709.84,324.25c33.06-.94,66.15-2.92,99.24-1.35,21.54,1.08,44.39,2.36,63.06,12.9a68.93,68.93,0,0,1,15.55,12.45,46.83,46.83,0,0,1,3.32,4,75,75,0,0,1,7.49,13.34c4.18,10.66,3.75,22.18,3.89,33.31-2.92-11.42-6.67-22.89-14-32.79-6.59-9.28-16.53-16.62-27.93-21-12.85-5.09-27.1-6.48-41.06-6.89-12-.68-24-.67-36.08-.41-34.85-.4-69.71-.24-104.57-.32-32.84-.31-65.72.7-98.49-1.7-13.12-1.14-26.25-2.4-39.15-4.77-6.76-1.34-13.56-2.64-20.25-4.3a43.57,43.57,0,0,1-4.81-1.72c10.73.19,21.41,1.45,32.15,1.56,29.52,1.77,59.16,1.16,88.72.61C661.22,326.28,685.55,325.61,709.84,324.25Z"/><polygon class="cls-7" points="806.59 375.67 814.06 375.67 816.69 361.36 803.78 361.36 806.59 375.67"/><polygon class="cls-5" points="520.42 361.36 531.7 376.92 542.98 361.36 520.42 361.36"/><polygon class="cls-8" points="756.51 408.5 779.07 408.5 767.79 392.94 756.51 408.5"/><rect class="cls-9" x="472.3" y="361.36" width="12.11" height="47.14"/><polygon class="cls-10" points="578.24 408.5 645.24 408.5 645.24 397.97 590.42 397.97 590.42 390 645.24 390 645.24 379.55 590.42 379.55 590.42 371.88 645.24 371.88 645.24 361.36 578.24 361.36 578.24 408.5"/><polygon class="cls-11" points="762.68 361.36 727.94 408.5 742.15 408.5 746.91 401.98 767.79 373.16 786.75 399.33 786.82 399.33 793.43 408.5 807.79 408.5 773.13 361.36 762.68 361.36"/><path class="cls-12" d="M724.56,377.15v-2c0-7.67-6.39-13.83-14.66-13.83H653.65V408.5h12.19V391.66H697L711.4,408.5h14.81l-14-17.07C719.75,390.23,724.56,384.66,724.56,377.15Zm-16.77,4H665.84v-9.25h41.95a4.48,4.48,0,0,1,4.66,4.36v.53A4.31,4.31,0,0,1,707.79,381.13Z"/><path class="cls-13" d="M460.57,377.15v-2c0-7.67-6.39-13.83-14.66-13.83H417.25q-1.85,1.63-3.5,3.4l-.08.09a55.77,55.77,0,0,0-5.77,7h35.91a4.48,4.48,0,0,1,4.66,4.36v.53a4.31,4.31,0,0,1-4.66,4.36h-41.2a75.07,75.07,0,0,0-3.94,10.53H433l14.44,16.84h14.81l-14-17.07C455.76,390.23,460.57,384.66,460.57,377.15Z"/><path class="cls-14" d="M895.21,406.68a85.52,85.52,0,0,0-2.84-13.22,90.62,90.62,0,0,0-4.5-12.07l-41.12-3.19c-2.11-.23-2.94-1.58-2.94-2.78v-1c0-1.28,1.13-2.56,3.24-2.56h35.36l-.65-.9-.1-.14a47.1,47.1,0,0,0-9.06-9.48H846.07c-8.72,0-14.36,4.51-14.36,12.33v3.15c0,7.75,5.49,11.21,13.23,11.81L887.27,392c1.73.15,3,1.2,3,2.55v.83c0,1.5-1.13,2.63-3.46,2.63H833.14V408.5H888a17.14,17.14,0,0,0,7.22-1.53Z"/><polygon class="cls-15" points="552.59 367.87 531.7 396.69 512.74 370.53 512.68 370.53 506.06 361.36 491.7 361.36 526.36 408.5 536.81 408.5 571.55 361.36 557.34 361.36 552.59 367.87"/></svg>